<svg width="596" height="241" viewBox="0 0 596 241" fill="none" xmlns="http://www.w3.org/2000/svg">
<path d="M177.328 192.523C175.829 187.023 182.828 179.523 187.328 180.023C190.928 180.423 182.162 188.523 177.328 192.523Z" fill="black"/>
<path d="M224.006 119.67C232.594 117.375 237.207 122.584 238.44 125.476C234.005 125.351 222.564 126.645 212.266 132.822C212.601 129.394 215.417 121.964 224.006 119.67Z" fill="black"/>
<path d="M219.568 96.9306C228.748 94.8135 232.648 98.9468 233.45 101.278C229.291 101.189 218.451 102.399 208.369 107.956C208.277 105.163 210.388 99.0477 219.568 96.9306Z" fill="black"/>
<path d="M475.697 67.1825C471.292 67.9506 460.183 72.974 450.993 86.9237C441.804 100.874 433.25 106.663 430.121 107.813C432.131 104.588 437.836 95.3004 444.574 83.9569C451.313 72.6135 468.131 68.0477 475.697 67.1825Z" fill="black"/>
<path d="M514.849 91.9999C520.217 87.2053 533.133 77.914 541.849 79.1044C535.375 83.2376 520.912 91.6029 514.849 91.9999Z" fill="black"/>
<path d="M218.384 70.0429C230.232 69.6152 234.959 77.1582 235.841 80.9833C230.417 77.8523 215.697 74.3578 200.21 85.4257C201.331 80.4763 206.536 70.4707 218.384 70.0429Z" fill="black"/>
<path d="M508.849 79.4902C514.51 77.2448 528.645 73.0425 539.902 74.1972C537.475 76.1219 527.868 79.875 508.849 79.4902Z" fill="black"/>
<path d="M470.975 53.3007C469.201 58.2825 459.562 68.8495 435.198 71.2626C430.801 71.2092 419.287 70.3064 408.403 67.123C397.519 63.9396 386.459 63.9249 382.289 64.3153C384.612 61.9089 394.354 58.064 414.739 61.9335C440.222 66.7704 456.447 65.5786 470.975 53.3007Z" fill="black"/>
<path d="M257.615 44.1571C281.489 40.9854 285.181 44.809 321.323 57.0556C350.237 66.8526 368.906 64.4034 374.626 61.954C345.543 81.3998 300.251 56.0861 277.009 51.7177C258.416 48.2231 240.46 55.0096 233.806 58.8398C238.17 49.8156 251.497 45.2912 257.615 44.1571Z" fill="black"/>
<path fill-rule="evenodd" clip-rule="evenodd" d="M522.833 49.0087C534.029 49.009 539.384 61.6656 539.87 63.1259C539.384 62.4769 537.144 61.7631 532.081 64.0995C525.754 67.0199 525.267 67.0194 521.86 67.0194C518.452 67.0194 515.045 65.0729 512.124 63.1259C509.204 61.1788 506.283 60.6913 503.849 60.6913C506.445 56.797 513.877 49.0087 522.833 49.0087ZM518.452 53.8769C517.317 54.2014 514.752 55.4349 513.584 57.7714C512.417 60.1077 517.316 61.9896 519.912 62.6386C520.302 59.134 519.101 55.3373 518.452 53.8769ZM526.24 62.6386C528.35 62.314 532.374 60.9835 531.595 58.2577C530.816 55.5321 528.35 54.2015 527.214 53.8769L526.24 62.6386Z" fill="black"/>
<path d="M504.131 45.3759C508.028 43.1318 512.9 44.1289 514.849 44.9081C512.575 45.3757 507.151 47.3396 503.644 51.454C500.136 55.5684 496.986 57.5323 495.849 57.9999C496.986 54.727 500.234 47.6201 504.131 45.3759Z" fill="black"/>
<path d="M525.849 42.3954C528.232 41.7477 534.14 41.4247 538.714 45.3114C543.288 49.1983 543.162 54.0564 542.527 55.9999C539.096 49.0036 529.979 44.015 525.849 42.3954Z" fill="black"/>
<path d="M483.806 19.9999C493.269 26.774 494.689 33.0642 490.904 39.3544C487.875 44.3867 487.118 48.5483 487.118 49.9999C477.655 39.1613 480.967 25.4838 483.806 19.9999Z" fill="black"/>
<path d="M501.623 39.6396C505.881 38.1327 508.881 39.6391 509.849 40.581C507.913 40.8949 503.559 41.9941 501.623 43.8778C499.204 46.2325 496.3 49.9998 494.849 49.9999C495.333 47.1743 497.365 41.1466 501.623 39.6396Z" fill="black"/>
<path fill-rule="evenodd" clip-rule="evenodd" d="M518.155 22.289C522.907 14.5009 533.176 -0.852284 536.246 0.0370221C540.084 1.14985 540.632 18.9509 541.729 31.1894C545.932 34.5271 554.447 42.4267 554.886 47.3222C555.434 53.4412 559.819 59.5606 561.464 61.786C563.109 64.0112 567.495 70.6868 566.399 77.3622C565.302 84.0377 564.205 87.3763 559.82 89.6015C555.434 91.8267 556.53 96.2769 552.693 100.171C549.728 103.178 534.992 105.85 525.405 107.169C523.878 110.134 522.61 112.943 521.849 115C521.849 113.284 521.936 110.606 522.502 107.548C520.956 107.737 519.653 107.879 518.703 107.959C514.587 108.307 505.75 106.477 498.1 100.835L497.936 101.293C497.403 101.101 494.456 100.76 488 104.68C481.734 108.484 472.784 115.944 460.71 129.8C447.837 144.572 429.503 152.328 412.702 156.043C411.47 156.315 410.242 156.564 409.024 156.795C410.712 159.891 412.129 163.865 412.67 168.19C413.517 174.964 412.245 182.903 406.206 189.805C403.382 193.032 399.159 194.751 394.77 195.65C390.321 196.562 385.246 196.724 380.185 196.471C370.788 195.999 360.932 194.063 354.16 192.283C350.975 197.271 347.42 202.527 343.404 208.057C339.026 214.083 334.952 220.675 330.122 225.64C325.055 230.849 318.871 234.643 309.899 235.484C307.352 235.723 305.005 235.344 302.976 234.273C300.943 233.2 299.475 231.563 298.478 229.697C296.548 226.088 296.276 221.472 296.783 217.211C297.301 212.863 298.69 208.358 300.635 204.642C302.495 201.089 305.238 197.551 308.862 196.216C312.887 194.733 319.576 189.922 326.234 183.326C328.753 180.83 331.19 178.154 333.408 175.414C333.396 175.402 333.384 175.391 333.372 175.379L333.674 175.084C337.143 170.757 340.052 166.281 341.861 162.108C342.807 159.923 343.484 158.003 343.928 156.227C323.901 153.444 309.692 156.038 297.184 158.971C284.615 161.917 272.995 165.471 259.207 163.555C249.27 186.271 232.816 202.984 220.575 211.808C223.647 214.567 230.897 218.374 245.363 217.506C251.633 217.13 256.716 216.936 260.798 217.017C264.836 217.097 268.154 217.447 270.775 218.295C273.512 219.18 275.686 220.679 277.033 223.089C278.289 225.335 278.571 227.943 278.571 230.5C278.571 232.856 277.492 234.766 275.919 236.151C274.444 237.45 272.531 238.309 270.563 238.915C266.616 240.13 261.336 240.653 255.606 240.811C244.066 241.13 229.492 239.984 217.287 238.988C215.813 238.868 214.436 238.732 213.145 238.579L213.155 238.999C206.156 239.166 189.719 239.5 180.072 239.5C176.122 239.5 172.203 237.836 168.63 235.561C165.012 233.258 161.429 230.12 158.074 226.701C151.362 219.86 145.225 211.538 141.16 205.441C138.885 202.028 137.725 198.717 137.621 195.495C137.517 192.26 138.488 189.429 139.95 187.005C142.736 182.386 147.635 178.821 150.91 176.248C151.941 175.438 153.177 174.639 154.366 173.881C155.603 173.092 156.851 172.31 158.108 171.437C160.631 169.686 162.883 167.775 164.391 165.463C165.834 163.25 166.674 160.554 166.196 156.961C165.704 153.258 163.781 148.39 159.228 142.039C151.056 130.641 148.711 117.528 148.998 105.963C149.216 97.1894 150.951 89.1497 152.945 83.1366C106.867 92.5414 75.1907 111.032 55.5881 129.368C44.731 139.524 37.625 149.585 33.7863 157.978C31.8657 162.178 30.8012 165.877 30.4475 168.904C30.089 171.972 30.4892 174.083 31.1662 175.362C32.9708 178.771 35.0376 179.961 37.2014 180.31C39.6735 180.71 42.8006 180.097 46.7092 178.703C50.6806 177.287 54.5465 175.436 59.0295 173.616C63.2729 171.893 67.8727 170.295 72.3469 170.007C81.0751 169.444 87.9203 172.975 90.4865 179.081C93.0698 185.227 90.617 192.32 84.2121 197.269C80.977 199.769 74.7335 202.7 67.3371 204.998C59.849 207.324 50.789 209.125 41.76 209.125C32.7532 209.125 23.4944 207.331 15.9094 202.176C8.2138 196.945 2.62648 188.513 0.617381 176.057C-3.42682 150.981 12.863 124.741 35.8586 104.083C59.0126 83.2827 89.9775 67.1764 117.491 62.5478C144.263 58.0442 148.856 56.1234 154.752 52.3612C161.364 48.1422 169.446 41.6346 201.734 28.2655C234.091 14.8676 251.16 13.2762 267.906 16.1112C276.021 17.485 284.142 19.9248 293.501 22.2685C302.968 24.639 314.138 27.0382 328.921 28.5165C359.021 31.5265 366.852 33.8111 373.374 36.1405C376.476 37.2485 378.997 38.2515 383.776 39.3456C388.606 40.4516 395.771 41.6529 407.963 43.0214C427.226 45.1835 442.188 43.9353 453.018 41.2519C463.705 38.6037 470.022 34.6504 472.707 31.5273C475.659 16.5684 477.587 3.16687 477.587 0.0370221C479.963 0.408031 487.785 5.60002 500.065 23.4013C503.902 22.845 512.893 21.844 518.155 22.289ZM481.973 9.49405C479.415 18.7657 475.724 40.7584 481.425 54.5546C478.131 53.5372 472.659 49.7397 471.714 41.9306C447.868 59.0045 432.954 54.2594 424.001 53.1825C414.569 52.048 411.65 51.193 383.612 49.8349C355.574 48.4767 341.325 51.8312 329.621 48.9999C315.091 45.4848 310.937 38.5747 284.112 31.3192C262.651 25.5148 238.735 35.9333 229.46 41.8681C231.971 37.7384 242.821 29.8778 247.932 26.4638C235.223 24.9357 202.621 45.5 194.121 54.4999C195.294 49.8076 205.02 39.3652 213.697 31.0566C210.76 32.1616 207.67 33.3839 204.411 34.7333C172.7 47.8637 165.031 54.1067 158.518 58.2626C152.886 61.8563 148.056 63.9113 133.559 66.7704C126.814 72.1387 124.25 79.5589 123.786 83.4735C135.509 79.7369 148.351 76.6026 162.361 74.2802C172.963 70.9899 188.666 67.7386 196.121 70.9999C176.621 73.5 169.85 86.6612 176.318 110.393C177.676 105.381 182.407 94.0477 190.458 88.8075C186.514 97.6706 179.867 117.504 184.837 125.934C186.468 120.73 191.819 109.292 200.168 105.168C196.137 113.908 188.783 134.647 191.616 147.68C193.891 141.653 200.32 129.489 207.84 129.045C205.045 134.334 199.039 146.751 197.38 154.112C196.407 158.428 191.786 165.243 187.333 170.791C185.538 173.596 183.277 175.851 181.212 177.732C180.545 178.398 179.963 178.938 179.496 179.316L179.514 179.253C177.129 181.366 175.486 182.808 174.559 184.325C172.017 188.484 171.377 191.095 172.393 194.143C173.576 197.694 177.175 202.41 185.426 209.91C189.737 213.829 192.561 217.177 194.745 219.997C197.032 222.949 198.265 224.813 199.84 226.444C202.432 229.128 205.85 231.031 217.857 232.012C230.152 233.015 244.328 234.12 255.413 233.813C260.995 233.659 265.496 233.151 268.503 232.225C270.011 231.761 270.868 231.272 271.293 230.897C271.621 230.609 271.571 230.519 271.571 230.5C271.571 228.307 271.292 227.165 270.923 226.505C270.646 226.009 270.132 225.444 268.619 224.955C266.99 224.428 264.495 224.091 260.658 224.015C256.866 223.939 252.011 224.12 245.781 224.494C225.087 225.736 214.873 218.17 212.363 212.395L211.574 210.584C202.379 213.115 199.102 206.682 198.627 202.737C215.979 209.112 229.921 194.694 234.723 186.688C223.513 191.246 216.912 186.245 215.014 183.176C239.614 183.766 250.185 166.648 252.396 158.016C244.712 163.78 236.354 164.348 233.135 163.911C258.841 147.785 260.546 132.332 258.185 126.621C252.6 134.228 245.097 135.998 242.043 135.933C258.599 121.313 259.436 107.028 257.784 101.714C251.448 110.509 242.337 111.785 238.573 111.323C252.595 102.527 257.687 83.6164 257.487 73.9999C257.487 73.9999 261.198 82.9047 262.923 88.8251C264.359 93.7539 265.879 101.625 265.888 101.674L265.854 102.176C267.745 111.596 268.259 120.588 267.704 129.097C273.812 125.883 283.041 122.451 289.479 124.756C281.851 127.716 266.442 135.786 265.826 144.38C271.748 138.815 287.056 128.679 300.921 132.65C290.286 135.132 271.024 147.587 264.575 157.037C274.866 157.557 284.054 154.859 295.586 152.155C302.102 150.627 309.18 149.166 317.311 148.467C339.135 144.87 338.278 133.465 334.513 124.396C333.145 121.742 331.632 118.829 329.964 115.609C327.813 111.455 326.966 107.472 327.256 103.734L325.277 102.675C299.735 92.8319 285.206 95.6273 279.568 99.1064C278.908 99.5771 278.32 100.037 277.809 100.477C278.246 100.027 278.831 99.5606 279.568 99.1064C287.459 93.4781 305.744 86.3672 328.495 94.8075L329.955 95.4316C331.109 93.4965 332.569 91.7308 334.235 90.1239C330.202 88.5927 324.509 86.154 319.456 83.1874C298.74 73.2374 280.201 74.4577 273.522 76.3114C279.085 71.7235 294.547 65.6229 322.878 77.3095C327.203 79.5595 335.773 83.6624 340.892 85.036C345.945 81.9028 351.89 79.4541 357.723 77.6239C371.625 72.0411 392.465 69.6757 405.182 88.7148C397.389 84.7022 379.234 77.9037 368.956 82.8105C372.716 83.6089 381.326 87.2341 385.685 95.3466C377.325 90.2789 356.045 84.5572 335.378 100.111C335.296 100.281 335.218 100.452 335.145 100.623C333.785 103.797 333.701 107.603 336.18 112.391C343.324 126.187 348.188 135.231 350.312 142.663C351.41 146.507 351.825 150.048 351.461 153.72C351.162 156.736 350.35 159.714 349.108 162.892C350.215 165.668 352.656 168.162 357.059 169.691C355.323 171.061 351.178 172.336 346.137 169.208C344.937 171.363 343.55 173.522 342.031 175.645C342.441 175.834 342.907 176 343.439 176.134C348.711 177.459 351.087 177.174 351.616 176.866C349.867 179.38 345.355 182.497 339.089 179.519C337.723 181.22 336.292 182.882 334.826 184.483C336.49 186.126 339.162 187.273 343.306 186.838C342.329 189.103 338.631 192.157 331.286 188.172C331.244 188.214 331.203 188.257 331.16 188.299C330.317 189.135 329.462 189.954 328.602 190.752C330.125 195.835 334.781 197.567 337.187 197.782C331.844 201.998 325.736 198.583 323.35 196.35C323.204 196.079 323.132 195.786 323.119 195.477C318.818 198.904 314.654 201.542 311.281 202.784C310.155 203.199 308.46 204.786 306.836 207.889C305.297 210.829 304.154 214.512 303.735 218.039C303.308 221.625 303.685 224.553 304.629 226.353C307.347 223.891 306.933 218.958 306.163 216.209C312.266 219.777 311.316 224.796 308.958 228.538C309.052 228.532 309.147 228.525 309.245 228.516C316.273 227.857 320.978 224.999 325.105 220.758C329.469 216.272 332.895 210.613 337.739 203.943C353.965 181.606 362.482 163.935 369.656 149.774C375.04 135.942 381.118 120.884 376.785 117.062C369.661 110.778 349.925 129.37 357.401 129.966C364.877 130.561 366.178 123.04 368.141 126.105C370.104 129.171 357.688 140.22 352.395 134.884C347.102 129.547 355.261 112.741 370.566 108.241C385.871 103.741 386.137 119.312 382.388 127.34C383.087 126.718 383.885 125.964 384.744 125.103C385.764 123.916 386.829 122.77 387.951 121.668C392.879 116.041 398.257 108.187 398.817 101.16C399.728 104.409 401.001 112.288 398.796 117.81C404.302 113.333 414.945 112.004 413.056 95.4023C415.225 97.9824 419.209 104.763 417.639 111.379C416.202 117.433 402.646 120.004 394.411 125.201C393.693 125.842 393 126.504 392.326 127.186C387.564 135.064 398.797 144.872 432.621 134C443.257 130.581 455.43 123.313 460.814 119.215C461.418 118.564 462.015 117.93 462.604 117.311C478.193 95.0304 481.626 96.4393 482.121 90.4999C481.121 87 475.876 92.0358 470.621 98.4999C471.048 83.7796 490.569 81.5235 483.344 80.4784C473.122 79.0001 465.123 98.5961 457.621 107.5C450.883 114.819 433.517 123.35 431.121 123C438.782 117.962 458.121 99.9999 464.121 84.9999C472.378 73.0732 480.64 74.1241 484.855 74.4189C485.438 69.1995 488.53 66.8276 490.744 66.2362C489.648 69.574 488.223 77.363 491.293 81.8134C495.131 87.3767 505.547 102.952 518.703 101.84C520.485 101.689 522.337 101.601 524.213 101.534C525.247 98.9385 526.728 96.3326 528.849 93.9999C533.849 88.5 537.349 86.3845 543.849 83.9999C542.516 85.7486 537.958 89.4642 533.849 94.0155C532.166 95.8801 530.342 98.5292 528.614 101.398C539.186 101.088 549.383 100.541 551.048 92.9394C547.759 93.6811 540.742 94.6078 538.987 92.3827C543.373 91.2701 552.474 88.3772 553.789 85.7069C555.434 82.3692 556.53 77.9191 551.048 75.1376C546.662 72.9124 545.932 69.3886 546.114 67.9052C549.038 68.0906 555.544 67.7941 558.175 65.1239C556.348 63.6404 552.254 58.4483 550.5 49.5478C548.307 38.4219 542.277 40.0903 538.987 36.1962C535.698 32.3023 535.698 32.8583 536.246 25.0702C536.685 18.8399 535.333 15.4281 534.602 14.5009C532.409 19.5076 529.01 30.4113 532.957 33.9716C537.891 38.4218 543.374 40.0903 545.567 43.9843C547.321 47.099 547.028 49.3613 546.662 50.1034L541.181 43.9843C540.267 43.2426 539.072 42.5001 536.795 41.7597C533.573 40.5002 529.668 36.1969 528.571 33.9716C527.475 31.7465 524.734 28.4083 520.897 28.4081C520.897 29.3353 521.993 31.7464 526.379 33.9716C525.1 34.7133 521.555 35.4175 517.608 32.3026C512.674 28.4087 511.576 26.1834 511.576 28.4081C511.576 30.6333 518.704 35.6403 525.282 38.4218C522.907 39.1635 517.278 40.0903 513.77 37.8651C509.384 35.0839 506.643 27.8532 504.45 28.4081C502.258 28.9644 504.449 33.9713 502.805 33.9716C501.159 33.9698 494.582 24.5142 492.938 22.289C491.293 20.0638 484.166 10.6068 481.973 9.49405ZM168.196 181.327C169.519 176.338 161.688 182.474 147.602 188.388C146.971 189.107 146.411 189.847 145.945 190.62C145.032 192.133 144.565 193.646 144.617 195.27C144.67 196.908 145.26 198.972 146.985 201.559C150.92 207.462 156.783 215.39 163.071 221.799C166.216 225.005 169.383 227.742 172.39 229.657C175.442 231.601 178.023 232.5 180.072 232.5C184.433 232.5 190.212 232.429 195.872 232.338C195.508 232.008 195.151 231.665 194.804 231.306C192.879 229.312 191.112 226.738 189.211 224.284C187.208 221.698 184.656 218.67 180.718 215.09C178.039 212.654 175.714 210.398 173.732 208.277C170.082 213.384 163.503 215.219 160.121 215.48C165.613 210.608 167.666 205.47 168.023 201.066C167.017 199.449 166.262 197.89 165.751 196.356C163.857 190.672 165.469 185.957 168.196 181.327ZM118.654 69.4511C116.274 69.8514 113.863 70.3454 111.428 70.9257C107.177 76.8172 108.455 83.0821 110.127 86.1376C102.458 83.4127 101.013 78.0061 101.548 73.7138C86.6946 78.5381 71.4227 86.2661 57.5832 95.8534C57.5828 101.997 59.7207 108.179 61.177 111.174C53.268 109.902 51.0932 104.952 51.0441 100.605C50.1187 101.31 49.2013 102.023 48.2932 102.744C47.9304 109.673 50.7699 115.983 52.6174 118.729C45.554 119.525 42.1162 113.829 40.7717 109.081C40.6933 109.151 40.6145 109.221 40.5363 109.291C40.1604 109.629 39.7864 109.968 39.4152 110.308C36.3462 116.348 40.5236 121.912 43.3537 124.155C36.919 124.328 33.3089 121.44 31.426 118.184C23.8832 126.219 17.7554 134.668 13.5236 143.184C14.1963 152.886 20.3741 158.519 23.7854 160.253C15.1128 162.876 10.6253 160.195 8.51484 156.526C8.10748 158.159 7.78006 159.788 7.53535 161.41L7.63008 161.343C7.57521 170.152 15.8365 170.695 19.9738 169.865C16.2969 174.705 11.2643 174.944 7.37324 173.904C7.41993 174.251 7.47183 174.597 7.52754 174.942C9.26842 185.736 13.9312 192.366 19.8449 196.386C23.4334 198.825 27.6198 200.394 32.1477 201.265L32.1213 201C46.6213 204 56.4598 199.668 54.6936 191.786C53.7473 187.565 46.6373 187.068 40.5129 187.351C40.0781 187.389 39.6438 187.414 39.2102 187.424C38.8409 187.447 38.4773 187.473 38.1213 187.5L38.2121 187.42C37.4982 187.398 36.788 187.334 36.0842 187.221C31.4826 186.477 27.675 183.728 24.9797 178.638C23.4069 175.667 23.0403 171.979 23.4943 168.093C23.9533 164.165 25.2795 159.75 27.4211 155.067C31.7075 145.695 39.4144 134.912 50.8068 124.256C67.0864 109.028 90.9912 93.9628 123.555 83.5478C118.252 78.4515 119.457 72.8519 121.909 68.8944C120.859 69.075 119.775 69.2624 118.654 69.4511ZM405.515 176.015C404.173 167.441 391.846 160.459 384.621 172.5L384.583 172.201C383.102 173.82 380.902 174.5 378.572 174.5C374.052 174.5 370.785 174.244 368.499 173.898C367.358 173.726 366.419 173.525 365.667 173.306C365.585 173.282 365.499 173.252 365.409 173.224C363.202 177.268 360.772 181.539 358.043 186.044C364.314 187.569 372.652 189.084 380.535 189.479C385.278 189.717 389.709 189.542 393.365 188.793C397.081 188.032 399.563 186.767 400.939 185.195C403.483 182.287 404.893 179.146 405.515 176.015ZM373.26 158.167C371.867 160.924 370.396 163.817 368.81 166.852C369.03 166.893 369.275 166.935 369.546 166.976C371.393 167.256 374.294 167.5 378.572 167.5C378.961 167.5 379.205 167.465 379.352 167.433C379.359 167.348 379.365 167.231 379.357 167.075C379.333 166.654 379.226 166.085 379 165.377C378.253 163.034 376.576 160.309 375.003 158.42C374.396 158.342 373.814 158.257 373.26 158.167ZM562.013 76.8066C558.504 79.0317 558.724 82.5544 559.272 84.038C562.78 81.368 562.561 78.1048 562.013 76.8066Z" fill="black"/>
<path d="M568.044 80.9335C571.926 81.4147 581.921 84.3015 590.849 91.9999C584.865 90.0753 571.926 85.1677 568.044 80.9335Z" fill="black"/>
<path d="M569.849 75.2714C574.101 74.641 585.253 74.7046 595.849 79.9999C590.289 79.9999 577.305 79.0538 569.849 75.2714Z" fill="black"/>
<path d="M568.849 69.7773C571.581 67.0549 580.806 62.2226 595.849 64.6728C589.903 66.8847 576.177 71.0021 568.849 69.7773Z" fill="black"/>
<path d="M583.849 51.9999C581.516 55.3599 574.649 62.4638 565.849 63.9999C568.349 60.6398 575.449 53.5359 583.849 51.9999Z" fill="black"/>
</svg>
